<mxfile host="65bd71144e">
    <diagram id="k5UbcWoa5PVLGJxkYrq2" name="Page-1">
        <mxGraphModel dx="797" dy="929" grid="1" gridSize="10" guides="1" tooltips="1" connect="1" arrows="1" fold="1" page="0" pageScale="1" pageWidth="1100" pageHeight="1700" math="0" shadow="0">
            <root>
                <mxCell id="0"/>
                <mxCell id="1" parent="0"/>
                <mxCell id="4" value="&lt;br&gt;Menu" style="rounded=0;whiteSpace=wrap;html=1;verticalAlign=top;fillColor=#1ba1e2;fontColor=#ffffff;strokeColor=#006099;strokeWidth=2;perimeterSpacing=0;" parent="1" vertex="1">
                    <mxGeometry x="260" y="210" width="350" height="120" as="geometry"/>
                </mxCell>
                <mxCell id="5" value="Set Text" style="rounded=1;whiteSpace=wrap;html=1;fillColor=#1DABF0;fontColor=#ffffff;strokeColor=#007BC4;strokeWidth=1;" parent="1" vertex="1">
                    <mxGeometry x="280" y="270" width="85" height="30" as="geometry"/>
                </mxCell>
                <mxCell id="7" value="Smoke On" style="rounded=1;whiteSpace=wrap;html=1;fillColor=#1DABF0;fontColor=#ffffff;strokeColor=#007BC4;strokeWidth=1;" parent="1" vertex="1">
                    <mxGeometry x="390" y="270" width="85" height="30" as="geometry"/>
                </mxCell>
                <mxCell id="8" value="Text Off" style="rounded=1;whiteSpace=wrap;html=1;fillColor=#1DABF0;fontColor=#ffffff;strokeColor=#007BC4;strokeWidth=1;" parent="1" vertex="1">
                    <mxGeometry x="500" y="270" width="85" height="30" as="geometry"/>
                </mxCell>
                <mxCell id="9" value="fn: setText()" style="rounded=1;whiteSpace=wrap;html=1;fillColor=#0050ef;fontColor=#ffffff;strokeColor=#001DBC;strokeWidth=1;" parent="1" vertex="1">
                    <mxGeometry x="200" y="380" width="127.5" height="60" as="geometry"/>
                </mxCell>
                <mxCell id="10" value="fn: triggerSmoke()" style="rounded=1;whiteSpace=wrap;html=1;fillColor=#0050ef;fontColor=#ffffff;strokeColor=#001DBC;strokeWidth=1;" parent="1" vertex="1">
                    <mxGeometry x="368.75" y="380" width="127.5" height="60" as="geometry"/>
                </mxCell>
                <mxCell id="11" value="fn: setText()" style="rounded=1;whiteSpace=wrap;html=1;fillColor=#0050ef;fontColor=#ffffff;strokeColor=#001DBC;strokeWidth=1;" parent="1" vertex="1">
                    <mxGeometry x="540" y="380" width="127.5" height="60" as="geometry"/>
                </mxCell>
                <mxCell id="12" value="" style="endArrow=classic;html=1;entryX=0.5;entryY=0;entryDx=0;entryDy=0;exitX=0.5;exitY=1;exitDx=0;exitDy=0;" parent="1" source="5" target="9" edge="1">
                    <mxGeometry width="50" height="50" relative="1" as="geometry">
                        <mxPoint x="380" y="480" as="sourcePoint"/>
                        <mxPoint x="430" y="430" as="targetPoint"/>
                    </mxGeometry>
                </mxCell>
                <mxCell id="13" value="" style="endArrow=classic;html=1;exitX=0.5;exitY=1;exitDx=0;exitDy=0;entryX=0.5;entryY=0;entryDx=0;entryDy=0;" parent="1" source="7" target="10" edge="1">
                    <mxGeometry width="50" height="50" relative="1" as="geometry">
                        <mxPoint x="450" y="600" as="sourcePoint"/>
                        <mxPoint x="500" y="550" as="targetPoint"/>
                    </mxGeometry>
                </mxCell>
                <mxCell id="14" value="" style="endArrow=classic;html=1;exitX=0.5;exitY=1;exitDx=0;exitDy=0;entryX=0.5;entryY=0;entryDx=0;entryDy=0;" parent="1" source="8" target="11" edge="1">
                    <mxGeometry width="50" height="50" relative="1" as="geometry">
                        <mxPoint x="510" y="590" as="sourcePoint"/>
                        <mxPoint x="560" y="540" as="targetPoint"/>
                    </mxGeometry>
                </mxCell>
                <mxCell id="15" value="- Get User Input&lt;br&gt;- Store String&lt;br&gt;- Set Textures w/ String Loop" style="rounded=0;whiteSpace=wrap;html=1;strokeColor=#314354;strokeWidth=1;fillColor=#647687;fontColor=#ffffff;" parent="1" vertex="1">
                    <mxGeometry x="191.25" y="470" width="145" height="150" as="geometry"/>
                </mxCell>
                <mxCell id="16" value="- Turn Smoke Script On/Off" style="rounded=0;whiteSpace=wrap;html=1;strokeColor=#314354;strokeWidth=1;fillColor=#647687;fontColor=#ffffff;" parent="1" vertex="1">
                    <mxGeometry x="362.5" y="470" width="145" height="150" as="geometry"/>
                </mxCell>
                <mxCell id="17" value="- Set text to empty" style="rounded=0;whiteSpace=wrap;html=1;strokeColor=#314354;strokeWidth=1;fillColor=#647687;fontColor=#ffffff;" parent="1" vertex="1">
                    <mxGeometry x="540" y="470" width="145" height="150" as="geometry"/>
                </mxCell>
                <mxCell id="18" value="" style="verticalLabelPosition=bottom;verticalAlign=top;html=1;shape=mxgraph.basic.tick;fillColor=#60a917;fontColor=#ffffff;strokeColor=#2D7600;" vertex="1" parent="1">
                    <mxGeometry x="590.25" y="200" width="27" height="30" as="geometry"/>
                </mxCell>
            </root>
        </mxGraphModel>
    </diagram>
</mxfile>